<?xml version="1.0" standalone="no"?>
<!DOCTYPE svg PUBLIC "-//W3C//DTD SVG 20010904//EN"
 "http://www.w3.org/TR/2001/REC-SVG-20010904/DTD/svg10.dtd">
<svg version="1.0" xmlns="http://www.w3.org/2000/svg"
 width="236.000000pt" height="236.000000pt" viewBox="0 0 236.000000 236.000000"
 preserveAspectRatio="xMidYMid meet">
<metadata>
Created by potrace 1.13, written by Peter Selinger 2001-2015
</metadata>
<g transform="translate(0.000000,236.000000) scale(0.100000,-0.100000)"
fill="#000000" stroke="none">
<path d="M465 2119 c-4 -6 -24 -413 -26 -514 0 -51 -2 -56 -11 -37 -10 20 -18
22 -85 22 -66 0 -73 2 -73 20 0 15 7 20 24 20 45 0 56 23 56 120 0 110 -8 120
-90 120 -78 0 -90 -16 -90 -122 0 -84 17 -118 60 -118 15 0 22 -9 27 -30 l5
-30 74 0 c68 0 90 -9 64 -25 -15 -9 -12 -57 5 -79 8 -11 15 -14 15 -8 0 7 5
12 11 12 7 0 10 -14 7 -35 -3 -30 -2 -33 12 -21 8 8 24 16 35 19 16 4 17 5 3
6 -24 1 -22 19 5 43 12 11 17 17 10 14 -6 -3 -18 -4 -26 -1 -20 8 -18 155 3
180 11 14 12 19 3 22 -7 3 -13 16 -13 30 0 25 1 25 18 10 16 -15 45 -17 193
-17 l174 0 75 -40 c82 -43 100 -48 100 -25 0 8 -6 15 -12 15 -7 0 -35 11 -63
24 l-50 24 270 1 270 0 75 -39 c77 -41 105 -49 98 -28 -2 6 -33 24 -69 39
l-64 28 180 1 c99 0 186 4 193 9 11 6 14 42 13 155 -1 80 -4 153 -8 162 -4 10
1 17 15 20 13 4 19 13 18 30 0 13 -3 24 -6 25 -32 7 -70 7 -70 -1 0 -7 -227
-10 -645 -10 -355 0 -645 4 -645 9 0 9 -60 10 -65 0z m1373 -32 c7 -8 12 -78
14 -178 l3 -164 -213 -3 c-195 -2 -215 -1 -250 17 l-37 20 85 2 85 2 -95 8
c-52 5 -138 5 -190 0 l-95 -8 88 -2 c60 -1 99 -6 125 -18 36 -18 32 -18 -241
-21 -249 -2 -281 -1 -310 15 l-32 18 80 5 80 5 -110 7 c-60 4 -146 4 -190 -1
l-80 -8 95 -2 c73 -1 103 -6 130 -21 l35 -19 -160 2 -160 2 3 165 c2 95 8 170
14 177 16 19 1311 19 1326 0z"/>
<path d="M2017 1852 c-13 -14 -17 -39 -17 -104 0 -92 13 -118 58 -118 15 0 22
-6 22 -20 0 -17 -8 -19 -72 -22 -67 -3 -73 -5 -76 -25 -2 -13 1 -23 7 -23 6 0
8 7 5 15 -5 11 9 15 73 17 77 3 78 3 81 31 3 21 9 27 26 27 43 0 56 29 56 122
0 105 -10 118 -92 118 -40 0 -59 -5 -71 -18z"/>
<path d="M562 1666 c-2 -40 -4 -46 -16 -37 -10 9 -15 8 -19 -2 -7 -20 8 -43
18 -27 6 9 9 9 15 -1 13 -19 1 -37 -21 -32 -10 3 -19 1 -19 -5 0 -22 22 -23
43 -3 21 18 33 20 153 18 97 -1 135 -6 148 -16 25 -21 53 -21 73 1 15 16 36
18 238 18 204 0 223 -2 239 -19 14 -16 31 -19 69 -12 4 0 7 7 7 14 0 12 55 13
250 4 44 -1 56 1 56 13 0 13 -20 14 -141 10 -108 -4 -145 -2 -162 9 -16 9 -33
11 -55 5 -28 -6 -412 -10 -533 -5 -22 1 -60 -1 -84 -5 -30 -4 -42 -3 -37 4 5
8 -27 12 -101 14 l-108 3 -6 50 -6 50 -1 -49z"/>
<path d="M1050 1433 c-122 -9 -213 -26 -231 -44 -17 -17 -36 -19 -184 -19
-151 0 -186 6 -155 25 15 9 12 25 -3 19 -7 -2 -19 -21 -26 -40 -8 -23 -18 -34
-26 -30 -9 3 -13 -2 -12 -15 1 -10 5 -19 9 -19 4 0 8 -13 8 -30 0 -16 -4 -30
-10 -30 -5 0 -10 -5 -10 -10 0 -6 3 -9 8 -8 4 2 7 -1 7 -7 0 -5 -3 -9 -8 -7
-4 1 -7 -2 -7 -8 0 -5 7 -10 15 -10 9 0 16 -14 20 -37 18 -112 23 -103 24 45
l1 152 710 -2 c781 -3 725 -8 695 57 -9 21 -14 24 -14 12 -1 -10 4 -27 9 -38
10 -18 6 -19 -159 -19 -144 0 -171 2 -179 16 -20 35 -286 61 -482 47z"/>
<path d="M862 1247 c-6 -7 -10 -55 -9 -112 l2 -100 315 0 315 0 3 104 c2 77
-1 107 -10 113 -7 4 -146 8 -309 8 -226 0 -299 -3 -307 -13z"/>
<path d="M500 980 c0 -6 -59 -10 -158 -10 -112 0 -173 -4 -209 -15 -84 -25
-83 -17 -83 -479 0 -425 1 -436 51 -462 39 -20 309 -20 348 0 46 24 51 50 51
265 l0 198 155 0 154 1 20 -33 c57 -98 242 -99 316 -1 27 35 29 36 94 36 38
-1 76 -7 91 -15 32 -18 133 -19 168 -1 20 10 70 14 195 13 l167 0 0 -208 c0
-205 0 -208 24 -236 l24 -28 170 0 c167 0 171 1 196 24 l26 24 0 423 0 423
-23 24 c-32 36 -96 47 -271 47 -86 0 -156 4 -156 9 0 4 -20 -12 -45 -37 -25
-24 -45 -46 -45 -47 0 -1 23 -42 51 -90 27 -48 48 -94 45 -101 -4 -12 30 -14
193 -14 110 0 206 -3 215 -6 21 -8 23 -136 2 -153 -10 -8 -304 -10 -1097 -9
l-1084 3 0 80 0 80 208 3 c156 2 207 5 207 15 0 6 23 52 50 102 l51 90 -41 33
c-22 19 -40 40 -40 48 0 8 -4 14 -10 14 -5 0 -10 -4 -10 -10z"/>
<path d="M810 925 c0 -8 8 -23 18 -32 15 -16 33 -18 135 -15 l118 3 -3 27 -3
27 -132 3 c-114 2 -133 0 -133 -13z"/>
<path d="M1274 925 c-15 -38 0 -44 136 -47 73 -2 134 1 138 6 3 5 -1 6 -8 1
-10 -6 -12 -4 -6 11 4 10 8 24 9 29 1 6 -49 11 -131 13 -111 2 -133 0 -138
-13z"/>
<path d="M643 854 c19 -23 23 -49 6 -38 -9 5 -10 -7 -4 -42 4 -27 12 -52 17
-55 6 -4 7 -12 4 -18 -5 -8 135 -11 516 -11 327 0 517 4 508 10 -12 8 -12 10
3 16 13 5 17 18 17 54 0 27 -5 52 -10 55 -6 4 -7 12 -4 18 5 8 4 9 -4 2 -6 -5
-12 -21 -14 -35 l-3 -25 -223 0 c-223 0 -223 0 -229 -22 -4 -20 -12 -23 -49
-23 -37 0 -44 3 -44 20 0 19 -7 20 -225 20 l-225 0 0 23 c0 13 -12 34 -27 48
-20 17 -23 18 -10 3z"/>
</g>
</svg>
